<mxfile host="app.diagrams.net" modified="2021-09-29T08:08:27.280Z" agent="5.0 (Windows NT 10.0; Win64; x64) AppleWebKit/537.36 (KHTML, like Gecko) Chrome/92.0.4515.159 YaBrowser/21.8.3.614 Yowser/2.5 Safari/537.36" etag="qgPusngglrfP7dd1fQye" version="15.3.7" type="github">
  <diagram id="kgpKYQtTHZ0yAKxKKP6v" name="Page-1">
    <mxGraphModel dx="1813" dy="561" grid="1" gridSize="10" guides="1" tooltips="1" connect="1" arrows="1" fold="1" page="1" pageScale="1" pageWidth="850" pageHeight="1100" math="0" shadow="0">
      <root>
        <mxCell id="0" />
        <mxCell id="1" parent="0" />
        <mxCell id="3nuBFxr9cyL0pnOWT2aG-1" value="Клиент" style="shape=umlLifeline;perimeter=lifelinePerimeter;container=1;collapsible=0;recursiveResize=0;rounded=0;shadow=0;strokeWidth=1;" parent="1" vertex="1">
          <mxGeometry x="120" y="80" width="100" height="360" as="geometry" />
        </mxCell>
        <mxCell id="3nuBFxr9cyL0pnOWT2aG-2" value="" style="points=[];perimeter=orthogonalPerimeter;rounded=0;shadow=0;strokeWidth=1;" parent="3nuBFxr9cyL0pnOWT2aG-1" vertex="1">
          <mxGeometry x="45" y="70" width="10" height="220" as="geometry" />
        </mxCell>
        <mxCell id="bJsdr8COPwwjOuSae141-7" value="Выбрать меню действий   &#xa;с сущностью" style="verticalAlign=bottom;endArrow=block;entryX=0;entryY=0;shadow=0;strokeWidth=1;" edge="1" parent="3nuBFxr9cyL0pnOWT2aG-1">
          <mxGeometry relative="1" as="geometry">
            <mxPoint x="-100" y="149.80000000000013" as="sourcePoint" />
            <mxPoint x="45" y="149.80000000000013" as="targetPoint" />
          </mxGeometry>
        </mxCell>
        <mxCell id="bJsdr8COPwwjOuSae141-10" value="Данные" style="verticalAlign=bottom;endArrow=open;dashed=1;endSize=8;exitX=0;exitY=0.95;shadow=0;strokeWidth=1;" edge="1" parent="3nuBFxr9cyL0pnOWT2aG-1">
          <mxGeometry relative="1" as="geometry">
            <mxPoint x="55" y="169.99999999999977" as="targetPoint" />
            <mxPoint x="225" y="169.99999999999977" as="sourcePoint" />
          </mxGeometry>
        </mxCell>
        <mxCell id="bJsdr8COPwwjOuSae141-11" value="Удалить" style="verticalAlign=bottom;endArrow=block;entryX=0;entryY=0;shadow=0;strokeWidth=1;" edge="1" parent="3nuBFxr9cyL0pnOWT2aG-1">
          <mxGeometry relative="1" as="geometry">
            <mxPoint x="-100" y="190.00000000000006" as="sourcePoint" />
            <mxPoint x="45" y="190.00000000000006" as="targetPoint" />
          </mxGeometry>
        </mxCell>
        <mxCell id="bJsdr8COPwwjOuSae141-12" value="Запрос удаления данных из БД" style="verticalAlign=bottom;endArrow=block;shadow=0;strokeWidth=1;" edge="1" parent="3nuBFxr9cyL0pnOWT2aG-1">
          <mxGeometry relative="1" as="geometry">
            <mxPoint x="55" y="190" as="sourcePoint" />
            <mxPoint x="225" y="190" as="targetPoint" />
            <Array as="points">
              <mxPoint x="80" y="190" />
            </Array>
          </mxGeometry>
        </mxCell>
        <mxCell id="bJsdr8COPwwjOuSae141-16" value="Добавить" style="verticalAlign=bottom;endArrow=block;entryX=0;entryY=0;shadow=0;strokeWidth=1;" edge="1" parent="3nuBFxr9cyL0pnOWT2aG-1">
          <mxGeometry relative="1" as="geometry">
            <mxPoint x="-100" y="230" as="sourcePoint" />
            <mxPoint x="45" y="230" as="targetPoint" />
          </mxGeometry>
        </mxCell>
        <mxCell id="bJsdr8COPwwjOuSae141-17" value="Отображение" style="verticalAlign=bottom;endArrow=open;dashed=1;endSize=8;shadow=0;strokeWidth=1;" edge="1" parent="3nuBFxr9cyL0pnOWT2aG-1">
          <mxGeometry relative="1" as="geometry">
            <mxPoint x="-95" y="250.00000000000006" as="targetPoint" />
            <mxPoint x="45" y="250.00000000000006" as="sourcePoint" />
            <Array as="points">
              <mxPoint x="5" y="250" />
            </Array>
          </mxGeometry>
        </mxCell>
        <mxCell id="bJsdr8COPwwjOuSae141-19" value="Результат" style="verticalAlign=bottom;endArrow=open;dashed=1;endSize=8;shadow=0;strokeWidth=1;" edge="1" parent="3nuBFxr9cyL0pnOWT2aG-1">
          <mxGeometry relative="1" as="geometry">
            <mxPoint x="55" y="250" as="targetPoint" />
            <mxPoint x="230" y="250" as="sourcePoint" />
          </mxGeometry>
        </mxCell>
        <mxCell id="3nuBFxr9cyL0pnOWT2aG-5" value="БД" style="shape=umlLifeline;perimeter=lifelinePerimeter;container=1;collapsible=0;recursiveResize=0;rounded=0;shadow=0;strokeWidth=1;" parent="1" vertex="1">
          <mxGeometry x="300" y="80" width="100" height="350" as="geometry" />
        </mxCell>
        <mxCell id="3nuBFxr9cyL0pnOWT2aG-6" value="" style="points=[];perimeter=orthogonalPerimeter;rounded=0;shadow=0;strokeWidth=1;" parent="3nuBFxr9cyL0pnOWT2aG-5" vertex="1">
          <mxGeometry x="45" y="80" width="10" height="200" as="geometry" />
        </mxCell>
        <mxCell id="bJsdr8COPwwjOuSae141-1" value="Пользователь" style="shape=umlLifeline;perimeter=lifelinePerimeter;container=1;collapsible=0;recursiveResize=0;rounded=0;shadow=0;strokeWidth=1;" vertex="1" parent="1">
          <mxGeometry x="-30" y="80" width="100" height="300" as="geometry" />
        </mxCell>
        <mxCell id="bJsdr8COPwwjOuSae141-2" value="" style="points=[];perimeter=orthogonalPerimeter;rounded=0;shadow=0;strokeWidth=1;" vertex="1" parent="bJsdr8COPwwjOuSae141-1">
          <mxGeometry x="45" y="70" width="10" height="190" as="geometry" />
        </mxCell>
        <mxCell id="bJsdr8COPwwjOuSae141-8" value="Отображение" style="verticalAlign=bottom;endArrow=open;dashed=1;endSize=8;shadow=0;strokeWidth=1;" edge="1" parent="bJsdr8COPwwjOuSae141-1" source="3nuBFxr9cyL0pnOWT2aG-2">
          <mxGeometry relative="1" as="geometry">
            <mxPoint x="55" y="164.79999999999978" as="targetPoint" />
            <mxPoint x="225" y="164.79999999999978" as="sourcePoint" />
            <Array as="points">
              <mxPoint x="160" y="165" />
            </Array>
          </mxGeometry>
        </mxCell>
        <mxCell id="bJsdr8COPwwjOuSae141-4" value="Открыть приложение" style="verticalAlign=bottom;endArrow=block;entryX=0;entryY=0;shadow=0;strokeWidth=1;" edge="1" parent="1" source="bJsdr8COPwwjOuSae141-2">
          <mxGeometry relative="1" as="geometry">
            <mxPoint y="160.0000000000001" as="sourcePoint" />
            <mxPoint x="170" y="160.0000000000001" as="targetPoint" />
          </mxGeometry>
        </mxCell>
        <mxCell id="bJsdr8COPwwjOuSae141-6" value="Возврат отображения" style="verticalAlign=bottom;endArrow=open;dashed=1;endSize=8;shadow=0;strokeWidth=1;" edge="1" parent="1" source="3nuBFxr9cyL0pnOWT2aG-2" target="bJsdr8COPwwjOuSae141-2">
          <mxGeometry relative="1" as="geometry">
            <mxPoint x="20" y="180" as="targetPoint" />
            <mxPoint x="190" y="179.9999999999999" as="sourcePoint" />
            <Array as="points">
              <mxPoint x="50" y="190" />
            </Array>
          </mxGeometry>
        </mxCell>
        <mxCell id="bJsdr8COPwwjOuSae141-9" value="Запрос данных из БД" style="verticalAlign=bottom;endArrow=block;shadow=0;strokeWidth=1;" edge="1" parent="1" source="3nuBFxr9cyL0pnOWT2aG-2" target="3nuBFxr9cyL0pnOWT2aG-6">
          <mxGeometry relative="1" as="geometry">
            <mxPoint x="170" y="229.80000000000013" as="sourcePoint" />
            <mxPoint x="340" y="229.80000000000013" as="targetPoint" />
            <Array as="points">
              <mxPoint x="200" y="230" />
            </Array>
          </mxGeometry>
        </mxCell>
        <mxCell id="bJsdr8COPwwjOuSae141-13" value="Результат" style="verticalAlign=bottom;endArrow=open;dashed=1;endSize=8;shadow=0;strokeWidth=1;" edge="1" parent="1" source="3nuBFxr9cyL0pnOWT2aG-6">
          <mxGeometry relative="1" as="geometry">
            <mxPoint x="170" y="290" as="targetPoint" />
            <mxPoint x="340" y="289.9999999999998" as="sourcePoint" />
          </mxGeometry>
        </mxCell>
        <mxCell id="bJsdr8COPwwjOuSae141-15" value="Отображение" style="verticalAlign=bottom;endArrow=open;dashed=1;endSize=8;shadow=0;strokeWidth=1;" edge="1" parent="1" source="3nuBFxr9cyL0pnOWT2aG-2" target="bJsdr8COPwwjOuSae141-2">
          <mxGeometry relative="1" as="geometry">
            <mxPoint x="20" y="289.9999999999997" as="targetPoint" />
            <mxPoint x="160" y="290.2" as="sourcePoint" />
            <Array as="points">
              <mxPoint x="125" y="290.2" />
            </Array>
          </mxGeometry>
        </mxCell>
        <mxCell id="bJsdr8COPwwjOuSae141-18" value="Запрос добавления данных в БД" style="verticalAlign=bottom;endArrow=block;shadow=0;strokeWidth=1;" edge="1" parent="1">
          <mxGeometry relative="1" as="geometry">
            <mxPoint x="170" y="310" as="sourcePoint" />
            <mxPoint x="340" y="310" as="targetPoint" />
            <Array as="points">
              <mxPoint x="195" y="310" />
            </Array>
          </mxGeometry>
        </mxCell>
      </root>
    </mxGraphModel>
  </diagram>
</mxfile>
